<?xml version="1.0" encoding="iso-8859-1"?>
<!-- Uploaded to: SVG Repo, www.svgrepo.com, Generator: SVG Repo Mixer Tools -->
<svg fill="#000000" height="800px" width="800px" version="1.1" id="Capa_1" xmlns="http://www.w3.org/2000/svg" xmlns:xlink="http://www.w3.org/1999/xlink" 
	 viewBox="0 0 59 59" xml:space="preserve">
<g>
	<path d="M0,0v59h59V0H0z M57,57H2V2h55V57z"/>
	<path d="M21,45c0.256,0,0.512-0.098,0.707-0.293c0.391-0.391,0.391-1.023,0-1.414L8.414,30l13.293-13.293
		c0.391-0.391,0.391-1.023,0-1.414s-1.023-0.391-1.414,0L5.586,30l14.707,14.707C20.488,44.902,20.744,45,21,45z"/>
	<path d="M37.293,44.707C37.488,44.902,37.744,45,38,45s0.512-0.098,0.707-0.293L53.414,30L38.707,15.293
		c-0.391-0.391-1.023-0.391-1.414,0s-0.391,1.023,0,1.414L50.586,30L37.293,43.293C36.902,43.684,36.902,44.316,37.293,44.707z"/>
	<path d="M24.785,50.977C24.857,50.992,24.93,51,25.001,51c0.459,0,0.873-0.318,0.976-0.785l9-41
		c0.118-0.54-0.223-1.073-0.762-1.191c-0.537-0.118-1.073,0.223-1.191,0.762l-9,41C23.905,50.325,24.246,50.858,24.785,50.977z"/>
</g>
</svg>